<svg viewBox="0 0 24 24" fill="none" xmlns="http://www.w3.org/2000/svg">
<path d="M20.25 8.51567C21.1341 8.80012 21.75 9.64384 21.75 10.6129V14.8984C21.75 16.0351 20.9026 16.9989 19.7697 17.0913C19.4308 17.119 19.0909 17.1432 18.75 17.1639V20.2546L15.75 17.2546C14.3963 17.2546 13.0556 17.1994 11.7302 17.0913C11.4319 17.0669 11.1534 16.9821 10.9049 16.8497M20.25 8.51567C20.0986 8.46696 19.9393 8.43464 19.7739 8.42092C18.4472 8.3108 17.1051 8.25464 15.75 8.25464C14.3948 8.25464 13.0528 8.3108 11.7261 8.42091C10.595 8.51479 9.75 9.47787 9.75 10.6129V14.8983C9.75 15.7357 10.2099 16.4792 10.9049 16.8497M20.25 8.51567V6.64195C20.25 5.02053 19.0983 3.61529 17.4903 3.40655C15.4478 3.1414 13.365 3.00464 11.2503 3.00464C9.13533 3.00464 7.05233 3.14142 5.00963 3.40663C3.40173 3.61538 2.25 5.02062 2.25 6.64202V12.8673C2.25 14.4887 3.40173 15.8939 5.00964 16.1027C5.58661 16.1776 6.16679 16.2422 6.75 16.2965V21.0046L10.9049 16.8497" stroke="#245974" stroke-width="1.5" stroke-linecap="round" stroke-linejoin="round"/>
</svg>
