<svg width="24" height="25" viewBox="0 0 24 25" fill="none" xmlns="http://www.w3.org/2000/svg">
<path d="M2.25 15.7661L7.40901 10.6071C8.28769 9.72842 9.71231 9.72842 10.591 10.6071L15.75 15.7661M14.25 14.2661L15.659 12.8571C16.5377 11.9784 17.9623 11.9784 18.841 12.8571L21.75 15.7661M3.75 19.5161H20.25C21.0784 19.5161 21.75 18.8445 21.75 18.0161V6.01611C21.75 5.18769 21.0784 4.51611 20.25 4.51611H3.75C2.92157 4.51611 2.25 5.18769 2.25 6.01611V18.0161C2.25 18.8445 2.92157 19.5161 3.75 19.5161ZM14.25 8.26611H14.2575V8.27361H14.25V8.26611ZM14.625 8.26611C14.625 8.47322 14.4571 8.64111 14.25 8.64111C14.0429 8.64111 13.875 8.47322 13.875 8.26611C13.875 8.05901 14.0429 7.89111 14.25 7.89111C14.4571 7.89111 14.625 8.05901 14.625 8.26611Z" stroke="#fff" stroke-width="1.5" stroke-linecap="round" stroke-linejoin="round"/>
</svg>
