<svg width="24" height="24" viewBox="0 0 24 24" fill="none" xmlns="http://www.w3.org/2000/svg">
<path d="M9.8132 15.9061L9 18.7523L8.1868 15.9061C7.75968 14.4112 6.59112 13.2426 5.09619 12.8155L2.25 12.0023L5.09619 11.1891C6.59113 10.762 7.75968 9.59344 8.1868 8.09851L9 5.25232L9.8132 8.09851C10.2403 9.59345 11.4089 10.762 12.9038 11.1891L15.75 12.0023L12.9038 12.8155C11.4089 13.2426 10.2403 14.4112 9.8132 15.9061Z" stroke="#fff" stroke-width="1.5" stroke-linecap="round" stroke-linejoin="round"/>
<path d="M18.2589 8.71686L18 9.75232L17.7411 8.71686C17.4388 7.50765 16.4947 6.56349 15.2855 6.26118L14.25 6.00232L15.2855 5.74345C16.4947 5.44115 17.4388 4.49699 17.7411 3.28778L18 2.25232L18.2589 3.28778C18.5612 4.49699 19.5053 5.44115 20.7145 5.74345L21.75 6.00232L20.7145 6.26118C19.5053 6.56349 18.5612 7.50764 18.2589 8.71686Z" stroke="#fff" stroke-width="1.5" stroke-linecap="round" stroke-linejoin="round"/>
<path d="M16.8942 20.5696L16.5 21.7523L16.1058 20.5696C15.8818 19.8977 15.3546 19.3705 14.6827 19.1466L13.5 18.7523L14.6827 18.3581C15.3546 18.1341 15.8818 17.6069 16.1058 16.9351L16.5 15.7523L16.8942 16.9351C17.1182 17.6069 17.6454 18.1341 18.3173 18.3581L19.5 18.7523L18.3173 19.1466C17.6454 19.3705 17.1182 19.8977 16.8942 20.5696Z" stroke="#fff" stroke-width="1.5" stroke-linecap="round" stroke-linejoin="round"/>
</svg>
