<svg width="44" height="65" viewBox="0 0 44 65" fill="none" xmlns="http://www.w3.org/2000/svg">
<g clip-path="url(#clip0_2336_519)">
<path d="M21.8638 32.5C21.8638 29.6711 22.9876 26.958 24.988 24.9576C26.9884 22.9572 29.7015 21.8334 32.5304 21.8334C35.3594 21.8334 38.0725 22.9572 40.0729 24.9576C42.0733 26.958 43.1971 29.6711 43.1971 32.5C43.1971 35.329 42.0733 38.0421 40.0729 40.0425C38.0725 42.0429 35.3594 43.1667 32.5304 43.1667C29.7015 43.1667 26.9884 42.0429 24.988 40.0425C22.9876 38.0421 21.8638 35.329 21.8638 32.5Z" fill="#1ABCFE"/>
<path d="M0.530273 53.8333C0.530273 51.0043 1.65408 48.2912 3.65447 46.2908C5.65486 44.2904 8.36796 43.1666 11.1969 43.1666H21.8636V53.8333C21.8636 56.6623 20.7398 59.3754 18.7394 61.3758C16.739 63.3762 14.0259 64.5 11.1969 64.5C8.36796 64.5 5.65486 63.3762 3.65447 61.3758C1.65408 59.3754 0.530273 56.6623 0.530273 53.8333Z" fill="#0ACF83"/>
<path d="M21.8638 0.5V21.8333H32.5304C35.3594 21.8333 38.0725 20.7095 40.0729 18.7091C42.0733 16.7087 43.1971 13.9956 43.1971 11.1667C43.1971 8.33769 42.0733 5.62458 40.0729 3.62419C38.0725 1.62381 35.3594 0.5 32.5304 0.5L21.8638 0.5Z" fill="#FF7262"/>
<path d="M0.530273 11.1667C0.530273 13.9956 1.65408 16.7087 3.65447 18.7091C5.65486 20.7095 8.36796 21.8333 11.1969 21.8333H21.8636V0.5H11.1969C8.36796 0.5 5.65486 1.62381 3.65447 3.62419C1.65408 5.62458 0.530273 8.33769 0.530273 11.1667Z" fill="#F24E1E"/>
<path d="M0.530273 32.5C0.530273 35.329 1.65408 38.0421 3.65447 40.0425C5.65486 42.0429 8.36796 43.1667 11.1969 43.1667H21.8636V21.8334H11.1969C8.36796 21.8334 5.65486 22.9572 3.65447 24.9576C1.65408 26.958 0.530273 29.6711 0.530273 32.5Z" fill="#A259FF"/>
</g>
<defs>
<clipPath id="clip0_2336_519">
<rect width="42.6667" height="64" fill="white" transform="translate(0.530273 0.5)"/>
</clipPath>
</defs>
</svg>
