<svg width="64" height="65" viewBox="0 0 64 65" fill="none" xmlns="http://www.w3.org/2000/svg">
<path d="M0 64.5V0.5H64V64.5H0Z" fill="#FFD600"/>
<path d="M41.8454 48.4058C43.0756 50.404 44.4125 52.3187 47.2445 52.3187C49.6231 52.3187 50.8712 51.1365 50.8712 49.5009C50.8712 47.5436 49.5805 46.8485 46.9636 45.7089L45.5289 45.0973C41.3885 43.3409 38.6347 41.14 38.6347 36.4911C38.6347 32.2067 41.9147 28.9462 47.04 28.9462C50.6898 28.9462 53.312 30.2102 55.2036 33.5205L50.7343 36.3773C49.7511 34.6209 48.688 33.9293 47.04 33.9293C45.3583 33.9293 44.2934 34.9907 44.2934 36.3773C44.2934 38.0911 45.36 38.7845 47.8223 39.8458L49.2569 40.4573C54.1369 42.5356 56.8889 44.6582 56.8889 49.4298C56.8889 54.5711 52.8285 57.3889 47.3778 57.3889C42.0463 57.3889 39.0187 54.7133 37.3334 51.4013L41.8454 48.4058ZM21.248 48.5516C22.1476 50.1622 23.5147 51.4013 25.4809 51.4013C27.3618 51.4013 28.4445 50.6582 28.4445 47.7693V28.9445H34.3698V48.6796C34.3698 54.6653 30.8978 57.3889 25.8276 57.3889C21.2463 57.3889 17.9396 54.2849 16.592 51.4013L21.248 48.5516Z" fill="#000001"/>
</svg>
