<svg width="70" height="65" viewBox="0 0 70 65" fill="none" xmlns="http://www.w3.org/2000/svg">
<path d="M34.9675 47.738C53.3291 47.738 68.2142 40.9157 68.2142 32.4999C68.2142 24.0842 53.3291 17.2618 34.9675 17.2618C16.6058 17.2618 1.7207 24.0842 1.7207 32.4999C1.7207 40.9157 16.6058 47.738 34.9675 47.738Z" stroke="#087EA4" stroke-width="3"/>
<path d="M22.0109 40.119C31.1917 56.3152 44.4351 66.0336 51.5909 61.8257C58.7466 57.6178 57.105 41.0771 47.9242 24.8809C38.7433 8.68475 25.4999 -1.03366 18.3441 3.17422C11.1884 7.38211 12.83 23.9228 22.0109 40.119Z" stroke="#087EA4" stroke-width="3"/>
<path d="M22.0107 24.8808C12.8299 41.077 11.1882 57.6177 18.344 61.8256C25.4997 66.0335 38.7431 56.3151 47.924 40.1189C57.1048 23.9228 58.7465 7.38205 51.5907 3.17416C44.435 -1.03372 31.1915 8.68469 22.0107 24.8808Z" stroke="#087EA4" stroke-width="3"/>
</svg>
