<svg width="106" height="64" viewBox="0 0 106 64" fill="none" xmlns="http://www.w3.org/2000/svg">
<path fill-rule="evenodd" clip-rule="evenodd" d="M52.932 0.5C38.9684 0.5 30.2411 7.48182 26.7502 21.4455C31.9865 14.4636 38.0956 11.8455 45.0774 13.5909C49.061 14.5858 51.908 17.4775 55.0595 20.6755C60.1931 25.8867 66.1354 31.9182 79.1138 31.9182C93.0774 31.9182 101.805 24.9364 105.296 10.9727C100.059 17.9545 93.9502 20.5727 86.9684 18.8273C82.9848 17.8324 80.1378 14.9407 76.9863 11.7427C71.8527 6.53151 65.9104 0.5 52.932 0.5ZM26.7502 31.9182C12.7865 31.9182 4.05927 38.9 0.568359 52.8636C5.80472 45.8818 11.9138 43.2636 18.8956 45.0091C22.8791 46.0059 25.7262 48.8956 28.8777 52.0937C34.0113 57.3048 39.9536 63.3364 52.932 63.3364C66.8956 63.3364 75.6229 56.3545 79.1138 42.3909C73.8774 49.3727 67.7684 51.9909 60.7865 50.2455C56.803 49.2505 53.956 46.3589 50.8045 43.1608C45.6709 37.9497 39.7286 31.9182 26.7502 31.9182Z" fill="#38BDF8"/>
</svg>
