<svg width="83" height="85" viewBox="0 0 83 85" fill="none" xmlns="http://www.w3.org/2000/svg">
<g clip-path="url(#clip0_2354_408)">
<path d="M83 42.5C83 19.0825 64.3665 0 41.5 0C18.592 0 0 19.0825 0 42.5C0 65.96 18.592 85 41.5 85C64.3665 85 83 65.96 83 42.5ZM32.287 65.3225L18.1355 26.435C20.418 26.35 22.991 26.095 22.991 26.095C25.066 25.84 24.817 21.2925 22.742 21.3775C22.742 21.3775 16.7245 21.845 12.9065 21.845C12.1595 21.845 11.371 21.845 10.4995 21.8025C13.862 16.5295 18.4608 12.2032 23.8761 9.21871C29.2914 6.23425 35.3504 4.68674 41.5 4.7175C51.1695 4.7175 59.9675 8.415 66.6075 14.6625C63.7855 14.195 59.76 16.32 59.76 21.3775C59.76 24.5225 61.6275 27.1575 63.495 30.3025C64.9475 32.895 65.7775 36.0825 65.7775 40.7575C65.7775 47.09 59.9675 62.0075 59.9675 62.0075L47.393 26.435C49.634 26.35 50.796 25.7125 50.796 25.7125C52.871 25.5 52.622 20.4 50.547 20.5275C50.547 20.5275 44.571 21.0375 40.67 21.0375C37.0595 21.0375 31.0005 20.5275 31.0005 20.5275C28.9255 20.4 28.6765 25.6275 30.7515 25.7125L34.5695 26.0525L39.7985 40.545L32.287 65.3225ZM72.2515 42.5C73.2475 39.78 75.3225 34.5525 74.036 24.4375C76.941 29.92 78.3935 35.955 78.3935 42.5C78.3935 56.4825 71.214 69.02 60.1335 75.565C64.159 64.5575 68.1845 53.465 72.2515 42.5ZM25.315 76.8825C12.948 70.7625 4.6065 57.5025 4.6065 42.5C4.6065 36.975 5.561 31.96 7.5945 27.2425C13.4875 43.775 19.3805 60.35 25.315 76.8825ZM42.0395 48.705L52.7465 78.37C49.1775 79.6025 45.4425 80.2825 41.5 80.2825C38.2215 80.2825 34.9845 79.815 31.9965 78.88C35.358 68.765 38.7195 58.735 42.0395 48.705Z" fill="#312A41"/>
</g>
<defs>
<clipPath id="clip0_2354_408">
<rect width="83" height="85" fill="white"/>
</clipPath>
</defs>
</svg>
