<?xml version="1.0" standalone="no"?>
<!DOCTYPE svg PUBLIC "-//W3C//DTD SVG 20010904//EN"
 "http://www.w3.org/TR/2001/REC-SVG-20010904/DTD/svg10.dtd">
<svg version="1.0" xmlns="http://www.w3.org/2000/svg"
 width="71.000000pt" height="35.000000pt" viewBox="0 0 181.000000 93.000000"
 preserveAspectRatio="xMidYMid meet" fill="currentColor">
<metadata>
Created by potrace 1.10, written by Peter Selinger 2001-2011
</metadata>
<g transform="translate(0.000000,93.000000) scale(0.100000,-0.100000)"
 stroke="none">
<path d="M216 755 c-9 -30 -19 -68 -22 -85 l-6 -30 254 0 255 0 21 79 c12 43
22 82 22 86 0 4 -40 5 -90 3 -95 -6 -103 -9 -196 -79 -28 -22 -54 -39 -57 -39
-3 0 0 21 8 48 23 74 26 72 -79 72 l-95 0 -15 -55z"/>
<path d="M786 748 c-3 -35 -10 -177 -16 -317 -14 -323 -23 -301 138 -300 l117
0 68 137 67 137 -5 -113 c-9 -162 -9 -162 143 -162 l117 0 158 325 c86 178
160 331 163 340 5 13 -8 15 -90 15 l-97 0 -94 -192 -95 -193 6 193 6 192 -107
0 -106 0 -95 -192 -94 -193 6 193 6 192 -95 0 -95 0 -6 -62z"/>
<path d="M111 363 c-29 -109 -54 -206 -57 -216 -5 -16 2 -18 92 -15 l98 3 36
130 c19 72 39 130 44 130 4 0 27 -58 50 -130 l42 -130 112 -3 112 -3 -27 73
c-105 284 -117 312 -152 335 -31 21 -45 23 -166 23 l-132 0 -52 -197z"/>
</g>
</svg>