<svg viewBox="0 0 24 24" fill="none" xmlns="http://www.w3.org/2000/svg">
<path d="M12 9.75464V16.5046M12 16.5046L9 13.5046M12 16.5046L15 13.5046M6.75 19.5046C4.26472 19.5046 2.25 17.4899 2.25 15.0046C2.25 13.0117 3.54555 11.3213 5.3404 10.7298C5.28105 10.4138 5.25 10.0879 5.25 9.75464C5.25 6.85514 7.60051 4.50464 10.5 4.50464C12.9312 4.50464 14.9765 6.15724 15.5737 8.40038C15.8654 8.30577 16.1767 8.25464 16.5 8.25464C18.1569 8.25464 19.5 9.59778 19.5 11.2546C19.5 11.6028 19.4407 11.9371 19.3316 12.248C20.7453 12.7851 21.75 14.1525 21.75 15.7546C21.75 17.8257 20.0711 19.5046 18 19.5046H6.75Z" stroke="#245974" stroke-width="1.5" stroke-linecap="round" stroke-linejoin="round"/>
</svg>
