<svg width="88" height="89" viewBox="0 0 88 89" fill="none" xmlns="http://www.w3.org/2000/svg">
<path fill-rule="evenodd" clip-rule="evenodd" d="M44 0C19.69 0 0 19.9137 0 44.5C0 64.1912 12.595 80.8231 30.085 86.7194C32.285 87.1087 33.11 85.7738 33.11 84.6056C33.11 83.5488 33.055 80.0444 33.055 76.3175C22 78.3756 19.14 73.5919 18.26 71.0887C17.765 69.8094 15.62 65.86 13.75 64.8031C12.21 63.9688 10.01 61.9106 13.695 61.855C17.16 61.7994 19.635 65.0812 20.46 66.4162C24.42 73.1469 30.745 71.2556 33.275 70.0875C33.66 67.195 34.815 65.2481 36.08 64.1356C26.29 63.0231 16.06 59.185 16.06 42.1637C16.06 37.3244 17.765 33.3194 20.57 30.2044C20.13 29.0919 18.59 24.5306 21.01 18.4119C21.01 18.4119 24.695 17.2438 33.11 22.9731C36.63 21.9719 40.37 21.4712 44.11 21.4712C47.85 21.4712 51.59 21.9719 55.11 22.9731C63.525 17.1881 67.21 18.4119 67.21 18.4119C69.63 24.5306 68.09 29.0919 67.65 30.2044C70.455 33.3194 72.16 37.2687 72.16 42.1637C72.16 59.2406 61.875 63.0231 52.085 64.1356C53.68 65.5262 55.055 68.1963 55.055 72.3681C55.055 78.32 55 83.1037 55 84.6056C55 85.7738 55.825 87.1644 58.025 86.7194C75.405 80.8231 88 64.1356 88 44.5C88 19.9137 68.31 0 44 0Z" fill="#1F2328"/>
</svg>
