<svg width="86" height="77" viewBox="0 0 86 77" fill="none" xmlns="http://www.w3.org/2000/svg">
<path fill-rule="evenodd" clip-rule="evenodd" d="M72.4971 52.3727C73.0297 52.0592 73.3575 51.4879 73.3594 50.8699L73.4056 35.9451C73.4075 35.3271 73.7352 34.756 74.2677 34.4425L82.9837 29.3107C84.1503 28.6239 85.6216 29.465 85.6216 30.8188V58.0253C85.6216 58.6453 85.2936 59.2189 84.7594 59.5334L55.9739 76.4785C55.427 76.8004 54.7486 76.8011 54.2011 76.4801L31.4747 63.1575C30.9389 62.8434 30.6097 62.2689 30.6097 61.6478V48.3059C30.6097 48.2906 30.6262 48.2811 30.6395 48.2887C30.6527 48.2963 30.6692 48.2867 30.6692 48.2715V48.2563C30.6692 48.2462 30.6746 48.2368 30.6833 48.2316L48.8827 37.5159C48.8992 37.5061 48.8923 37.4808 48.8732 37.4808C48.8627 37.4808 48.8543 37.4723 48.8543 37.4619L48.8932 23.628C48.897 22.271 47.4219 21.4262 46.2534 22.1161L31.4995 30.8276C30.9506 31.1517 30.2689 31.1517 29.72 30.8276L14.9289 22.094C13.7623 21.4052 12.2891 22.2461 12.2891 23.6009V48.8138C12.2891 50.1659 10.8213 51.0072 9.65462 50.3239L0.867212 45.1769C0.3302 44.8624 0.000637727 44.2863 0.00167488 43.664L0.071017 2.05495C0.0732708 0.702523 1.5433 -0.136314 2.70878 0.549768L29.722 16.4515C30.2699 16.7741 30.9496 16.7741 31.4975 16.4515L58.5056 0.552765C59.6722 -0.133976 61.1434 0.707139 61.1434 2.06087V43.6795C61.1434 44.2987 60.8161 44.8719 60.2828 45.1866L45.4149 53.9611C44.2642 54.6402 44.2683 56.3064 45.4225 56.9798L54.2023 62.102C54.7493 62.4211 55.426 62.4198 55.9718 62.0986L72.4971 52.3727ZM73.7297 17.807C73.7297 19.1758 75.2304 20.0147 76.3964 19.2977L84.7883 14.1374C85.3061 13.819 85.6216 13.2546 85.6216 12.6467V2.13048C85.6216 0.761691 84.1209 -0.0772138 82.955 0.63977L74.5631 5.80007C74.0452 6.1185 73.7297 6.68286 73.7297 7.29078V17.807Z" fill="#007FFF"/>
</svg>
