<svg width="63" height="63" viewBox="0 0 63 63" fill="none" xmlns="http://www.w3.org/2000/svg">
<path fill-rule="evenodd" clip-rule="evenodd" d="M37.2228 0.561768C36.771 0.561768 36.3515 0.658857 35.9643 0.788301C36.7872 1.33845 37.2389 2.0666 37.4648 2.89183C37.481 3.00509 37.5132 3.086 37.5294 3.19926C37.5456 3.29635 37.5616 3.39344 37.5616 3.49053C37.6262 4.91445 37.1905 5.09244 36.884 5.93385C36.4161 7.01798 36.5451 8.18301 37.1099 9.1215C37.1583 9.23477 37.2228 9.36421 37.3035 9.47748C36.6904 5.3837 40.0949 4.76882 40.7241 3.49053C40.7725 2.37404 39.8528 1.62971 39.1267 1.11192C38.4329 0.691216 37.8037 0.561768 37.2228 0.561768ZM42.3538 1.48408C42.2892 1.85624 42.3376 1.75916 42.3215 1.95333C42.3054 2.08278 42.3054 2.24459 42.2893 2.37404C42.257 2.50348 42.2247 2.63293 42.1763 2.76238C42.1441 2.89183 42.0956 3.02128 42.0472 3.15072C41.9827 3.28018 41.9343 3.39344 41.8698 3.52288C41.8214 3.58764 41.7891 3.65233 41.7407 3.71706C41.7084 3.7656 41.6761 3.81414 41.6439 3.86269C41.5632 3.97596 41.4825 4.08922 41.4018 4.1863C41.305 4.28339 41.2243 4.39666 41.1114 4.47757V4.49377C41.0146 4.57467 40.9178 4.67176 40.8048 4.75266C40.466 5.01155 40.0788 5.20573 39.7238 5.44844C39.6109 5.52935 39.4979 5.59407 39.4011 5.69116C39.2881 5.77206 39.1913 5.85296 39.0945 5.95005C38.9816 6.04714 38.9009 6.14423 38.8041 6.25749C38.7234 6.35458 38.6266 6.46784 38.5621 6.58111C38.4814 6.69438 38.4007 6.80765 38.3362 6.92091C38.2716 7.05035 38.2232 7.16363 38.1587 7.29307C38.1103 7.42252 38.0619 7.53579 38.0296 7.66523C37.9812 7.81086 37.9489 7.94031 37.9167 8.06976C37.9005 8.13451 37.9005 8.21539 37.8844 8.28011C37.8682 8.34486 37.8682 8.40956 37.8522 8.47429C37.8522 8.60373 37.836 8.74936 37.836 8.87881C37.836 8.97589 37.836 9.07298 37.8522 9.17007C37.8522 9.29951 37.8683 9.42896 37.9006 9.57459C37.9167 9.70403 37.949 9.83348 37.9813 9.96294C38.0297 10.0924 38.0619 10.2218 38.1103 10.3513C38.1426 10.4322 38.191 10.5131 38.2233 10.5778L34.5122 9.1377C33.883 8.95971 33.2698 8.79791 32.6406 8.65228C32.3017 8.57137 31.9629 8.49046 31.6241 8.40956C30.656 8.21539 29.6717 8.06976 28.6875 7.97268C28.6552 7.97268 28.6391 7.95647 28.6068 7.95647C27.6387 7.85939 26.6867 7.81085 25.7186 7.81085C25.0087 7.81085 24.2987 7.84318 23.6049 7.89175C22.6207 7.9565 21.6365 8.08592 20.6522 8.24773C20.4102 8.28007 20.1682 8.32864 19.9262 8.37718C19.426 8.47426 18.9419 8.58753 18.474 8.7008C18.232 8.76555 17.9899 8.83025 17.7479 8.89497C17.5059 8.99205 17.28 9.10532 17.0541 9.20241C16.8766 9.28331 16.6991 9.36422 16.5217 9.44513C16.4894 9.46133 16.4571 9.46133 16.441 9.47746C16.2796 9.55836 16.1344 9.62308 15.9892 9.704C15.9408 9.7202 15.9085 9.73633 15.8763 9.75254C15.6988 9.83344 15.5213 9.93053 15.3761 10.0114C15.2631 10.06 15.1502 10.1247 15.0534 10.1732C15.005 10.2056 14.9404 10.238 14.9082 10.2541C14.7629 10.3351 14.6177 10.416 14.4886 10.4969C14.3434 10.5778 14.2144 10.6587 14.1014 10.7396C13.9885 10.8205 13.8755 10.8852 13.7787 10.9661C13.7625 10.9823 13.7465 10.9823 13.7303 10.9984C13.6335 11.0632 13.5205 11.1441 13.4237 11.225C13.4237 11.225 13.4076 11.2412 13.3915 11.2573C13.3108 11.3221 13.2301 11.3868 13.1495 11.4515C13.1172 11.4677 13.0849 11.5 13.0527 11.5162C12.972 11.581 12.8913 11.6619 12.8106 11.7266C12.7945 11.7589 12.7622 11.7751 12.7461 11.7913C12.6493 11.8884 12.5524 11.9693 12.4556 12.0664C12.4395 12.0664 12.4395 12.0826 12.4234 12.0988C12.3266 12.1797 12.2298 12.2767 12.133 12.3738C12.1168 12.39 12.1168 12.4062 12.1007 12.4062C12.02 12.4871 11.9394 12.568 11.8587 12.6651C11.8264 12.6974 11.778 12.7298 11.7457 12.7621C11.6651 12.8592 11.5683 12.9563 11.4714 13.0534C11.4553 13.0857 11.423 13.1019 11.4069 13.1343C11.2778 13.2638 11.1649 13.3932 11.0358 13.5227C11.0196 13.5389 11.0035 13.555 10.9874 13.5712C10.7292 13.8463 10.4549 14.1213 10.1645 14.3641C9.87405 14.623 9.56749 14.8657 9.26092 15.076C8.93822 15.3026 8.63166 15.4967 8.29282 15.6909C7.97012 15.8689 7.63128 16.0307 7.27631 16.1763C6.93747 16.322 6.58251 16.4514 6.22754 16.5647C5.54986 16.7103 4.85605 16.9854 4.25906 17.0339C4.12998 17.0339 3.98476 17.0663 3.85568 17.0825C3.71047 17.1148 3.58139 17.1472 3.45231 17.1796C3.32323 17.2281 3.19415 17.2766 3.06507 17.3252C2.93599 17.3737 2.80691 17.4384 2.67783 17.5032C2.56488 17.5841 2.4358 17.6488 2.32286 17.7297C2.20991 17.8106 2.09697 17.9077 2.00015 18.0048C1.88721 18.0857 1.77427 18.199 1.67745 18.296C1.58064 18.4093 1.48383 18.5064 1.40316 18.6197C1.32249 18.7491 1.22568 18.8624 1.16113 18.9918C1.08046 19.1051 0.999786 19.2345 0.935242 19.364C0.870676 19.5096 0.806164 19.6391 0.757758 19.7847C0.709353 19.9141 0.660947 20.0598 0.612542 20.2054C0.580297 20.3348 0.547976 20.4643 0.531869 20.5937C0.531869 20.61 0.515709 20.6261 0.515709 20.6423C0.483464 20.7879 0.483464 20.9821 0.467303 21.0792C0.451143 21.1924 0.435059 21.2895 0.435059 21.4028C0.435059 21.4675 0.435059 21.5484 0.451219 21.6131C0.467378 21.7264 0.483463 21.8235 0.515784 21.9206C0.548029 22.0177 0.58035 22.1147 0.628725 22.2118V22.228C0.677131 22.3251 0.741674 22.4222 0.80621 22.5193C0.870775 22.6164 0.935296 22.7135 1.01597 22.8106C1.09664 22.8915 1.19345 22.9885 1.29026 23.0695C1.38707 23.1665 1.48389 23.2474 1.59683 23.3283C1.98407 23.6681 2.08088 23.7814 2.58107 24.0403C2.66174 24.0889 2.74242 24.1212 2.83923 24.1698C2.85539 24.1698 2.87148 24.186 2.88764 24.186C2.88764 24.2183 2.88764 24.2345 2.9038 24.2669C2.91996 24.3963 2.9522 24.5258 2.98447 24.6552C3.01672 24.8008 3.06515 24.9303 3.11356 25.0436C3.16196 25.1406 3.19423 25.2377 3.24264 25.3348C3.2588 25.3672 3.27488 25.3996 3.29104 25.4157C3.35561 25.5452 3.42012 25.6584 3.48466 25.7717C3.56534 25.885 3.64601 25.9982 3.72668 26.1115C3.80736 26.2086 3.90417 26.3219 4.00098 26.4189C4.09779 26.516 4.1946 26.5969 4.30755 26.694C4.30755 26.694 4.32371 26.7102 4.33979 26.7102C4.43661 26.7911 4.53342 26.8721 4.63023 26.9368C4.74317 27.0177 4.85612 27.0824 4.9852 27.1471C5.09814 27.2119 5.22722 27.2766 5.3563 27.3251C5.45311 27.3737 5.56605 27.406 5.679 27.4384C5.69516 27.4546 5.71125 27.4546 5.74357 27.4707C5.80813 27.487 5.88878 27.5031 5.95332 27.5193C5.90491 28.393 5.88875 29.2183 6.01789 29.5095C6.16309 29.8331 6.87304 28.8461 7.58298 27.7134C7.48617 28.8299 7.42163 30.1406 7.58298 30.5289C7.76047 30.9334 8.72857 29.6713 9.56759 28.2798C21.0073 25.6261 31.4467 33.5548 32.5439 44.752C32.3341 43.0044 30.1882 42.0336 29.2039 42.2763C28.7199 43.4737 27.897 45.0109 26.5739 45.9656C26.6869 44.8976 26.6385 43.7973 26.4126 42.7294C26.0576 44.218 25.3638 45.6096 24.4118 46.807C22.879 46.9202 21.3462 46.1759 20.5394 45.0594C20.4748 45.0109 20.4587 44.9138 20.4103 44.8491C20.3619 44.7358 20.3135 44.6226 20.2812 44.5093C20.2328 44.396 20.2006 44.2827 20.1844 44.1695C20.1683 44.0562 20.1683 43.9429 20.1683 43.8135C20.1683 43.7326 20.1683 43.6517 20.1683 43.5708C20.1844 43.4575 20.2167 43.3442 20.2489 43.231C20.2812 43.1177 20.3135 43.0044 20.3619 42.8912C20.4265 42.7779 20.4748 42.6646 20.5555 42.5514C20.8298 41.7747 20.8298 41.1436 20.3296 40.7715C20.2328 40.7067 20.136 40.6582 20.0231 40.6097C19.9585 40.5935 19.8778 40.5611 19.8133 40.5449C19.7649 40.5287 19.7326 40.5126 19.6842 40.4964C19.5713 40.464 19.4583 40.4316 19.3454 40.4155C19.2324 40.3831 19.1195 40.3669 19.0066 40.3669C18.8936 40.3507 18.7645 40.3346 18.6516 40.3346C18.5709 40.3346 18.4902 40.3508 18.4096 40.3508C18.2805 40.3508 18.1675 40.367 18.0546 40.3993C17.9416 40.4156 17.8287 40.4317 17.7158 40.4641C17.6028 40.4964 17.4899 40.5288 17.3769 40.5774C17.264 40.6259 17.1672 40.6744 17.0542 40.723C16.9574 40.7715 16.8606 40.8362 16.7477 40.8848C12.9882 43.3443 15.231 49.1047 17.7964 50.7714C16.8283 50.9493 15.8441 51.1597 15.5698 51.3701C15.5536 51.3863 15.5376 51.4024 15.5376 51.4024C16.2314 51.8231 16.9574 52.1791 17.7158 52.4865C18.7484 52.8263 19.8456 53.1338 20.3297 53.2632V53.2794C21.6689 53.5545 23.0242 53.6516 24.3957 53.5707C31.5435 53.0691 37.4005 47.6161 38.4654 40.4317C38.4977 40.5773 38.53 40.7068 38.5623 40.8524C38.6107 41.1437 38.6752 41.4511 38.7075 41.7586V41.7748C38.7397 41.9204 38.7559 42.066 38.772 42.1955V42.2602C38.7882 42.4059 38.8043 42.5515 38.8043 42.6809C38.8204 42.8589 38.8365 43.0369 38.8365 43.2149V43.4738C38.8365 43.5547 38.8527 43.6518 38.8527 43.7327C38.8527 43.8298 38.8365 43.9269 38.8365 44.024V44.2505C38.8365 44.3638 38.8203 44.4608 38.8203 44.5741C38.8203 44.6389 38.8203 44.7036 38.8042 44.7845C38.8042 44.8977 38.788 45.011 38.788 45.1404C38.7718 45.189 38.7718 45.2375 38.7718 45.2861C38.7557 45.4155 38.7396 45.5288 38.7234 45.6582C38.7234 45.7068 38.7234 45.7553 38.7073 45.8039C38.6911 45.9657 38.6589 46.1113 38.6427 46.2731V46.2893V46.3055C38.6105 46.4512 38.5782 46.613 38.5459 46.7586V46.8072C38.5137 46.9528 38.4813 47.0984 38.4491 47.244C38.4491 47.2603 38.4329 47.2926 38.4329 47.3088C38.4007 47.4544 38.3684 47.6 38.32 47.7457V47.7942C38.2716 47.956 38.2232 48.1016 38.1909 48.2473C38.1748 48.2635 38.1748 48.2796 38.1748 48.2796C38.1264 48.4414 38.078 48.6032 38.0296 48.765C37.965 48.9269 37.9166 49.0725 37.8521 49.2343C37.7875 49.3961 37.7391 49.5579 37.6746 49.7035C37.61 49.8654 37.5455 50.011 37.481 50.1728H37.4648C37.4002 50.3184 37.3357 50.4802 37.255 50.6259C37.2389 50.6744 37.2228 50.7068 37.2066 50.7391C37.1905 50.7553 37.1905 50.7715 37.1744 50.7877C36.1256 52.9074 34.5766 54.7682 32.6404 56.2245C32.5113 56.3054 32.3823 56.4025 32.2532 56.4995C32.2209 56.5319 32.1725 56.5481 32.1402 56.5804C32.0273 56.6614 31.9144 56.7423 31.7853 56.8232L31.8337 56.9203H31.8498C32.0757 56.8879 32.3016 56.8555 32.5275 56.8232H32.5437C32.9632 56.7584 33.3827 56.6775 33.8022 56.5966C33.9151 56.5804 34.0442 56.5481 34.1572 56.5157C34.2378 56.4995 34.3024 56.4834 34.3831 56.4672C34.496 56.451 34.6089 56.4186 34.7219 56.4024C34.8187 56.3701 34.9155 56.3539 35.0123 56.3215C36.6258 55.9332 38.1909 55.3992 39.6915 54.7682C37.126 58.2794 33.6892 61.1111 29.6716 62.9719C31.5272 62.8425 33.3827 62.535 35.1737 62.0172C41.6761 60.0917 47.1459 55.7066 50.4213 49.8006C49.7597 53.5384 48.2753 57.0982 46.081 60.205C47.6461 59.1694 49.0821 57.972 50.389 56.6128C54.0033 52.8264 56.3751 48.0207 57.1819 42.859C57.7304 45.4156 57.8918 48.0531 57.6498 50.6582C69.2993 34.3639 58.6179 17.471 54.1485 13.0213C54.1323 12.9889 54.1162 12.9727 54.1162 12.9404C54.1 12.9566 54.1 12.9566 54.1 12.9727C54.1 12.9565 54.1 12.9565 54.0839 12.9404C54.0839 13.1345 54.0677 13.3287 54.0516 13.5229C54.0032 13.895 53.9548 14.251 53.8903 14.607C53.8096 14.963 53.7128 15.3189 53.616 15.6749C53.5031 16.0147 53.374 16.3707 53.2288 16.7105C53.0835 17.0341 52.9222 17.3739 52.7447 17.6976C52.5672 18.005 52.3736 18.3286 52.1638 18.6199C51.9541 18.9273 51.7282 19.2186 51.5023 19.4936C51.2603 19.7849 51.0021 20.0438 50.744 20.3027C50.5826 20.4483 50.4374 20.5778 50.276 20.7072C50.147 20.8205 50.034 20.9176 49.9049 21.0308C49.6145 21.2574 49.3241 21.4677 49.0014 21.6619C48.6948 21.8561 48.3721 22.0502 48.0494 22.212C47.7106 22.3739 47.3717 22.5195 47.0329 22.6651C46.6941 22.7946 46.3391 22.9078 45.9841 23.0049C45.6292 23.102 45.2581 23.1829 44.9031 23.2476C44.532 23.3124 44.1609 23.3447 43.8059 23.3771C43.5477 23.3933 43.2896 23.4094 43.0314 23.4094C42.6603 23.4094 42.2892 23.3771 41.9342 23.3447C41.5631 23.3123 41.192 23.2638 40.8371 23.1828C40.466 23.1181 40.111 23.021 39.756 22.9078H39.7399C40.0948 22.8754 40.4498 22.843 40.8048 22.7783C41.1759 22.7136 41.5308 22.6327 41.8858 22.5356C42.2408 22.4385 42.5958 22.3253 42.9346 22.1958C43.2896 22.0664 43.6284 21.9046 43.9511 21.7427C44.2899 21.5809 44.5965 21.4029 44.9192 21.2088C45.2258 20.9984 45.5323 20.7881 45.8228 20.5615C46.1132 20.335 46.3875 20.0923 46.6456 19.8334C46.9199 19.5907 47.162 19.3156 47.404 19.0405C47.646 18.7493 47.8719 18.458 48.0817 18.1667C48.1139 18.1182 48.1462 18.0535 48.1785 18.0049C48.3398 17.746 48.5012 17.4871 48.6464 17.2282C48.8239 16.9046 48.9852 16.581 49.1304 16.2412C49.2757 15.9014 49.4047 15.5616 49.5177 15.2056C49.6306 14.8658 49.7113 14.5098 49.792 14.1539C49.8565 13.7817 49.9211 13.4257 49.9533 13.0697C49.9856 12.6976 50.0179 12.3254 50.0179 11.9694C50.0179 11.7105 50.0017 11.4516 49.9856 11.1928C49.9534 10.8206 49.905 10.4646 49.8566 10.1086C49.792 9.73647 49.7114 9.38049 49.6145 9.0245C49.5016 8.68471 49.3886 8.32872 49.2596 7.98893C49.1305 7.64912 48.9691 7.30932 48.8078 6.9857C48.6303 6.66208 48.4528 6.33846 48.2592 6.03103C48.0494 5.72359 47.8397 5.43233 47.6138 5.14107C47.3718 4.86599 47.1297 4.59092 46.8716 4.31584C46.7425 4.1864 46.5973 4.04077 46.4521 3.91132C45.726 3.34498 44.9676 2.81101 44.2093 2.32558C44.0964 2.26084 43.9996 2.21232 43.8866 2.16377C43.3541 1.82397 42.8539 1.64589 42.3538 1.48408Z" fill="#E0234E"/>
</svg>
