<svg width="65" height="65" viewBox="0 0 65 65" fill="none" xmlns="http://www.w3.org/2000/svg">
<g clip-path="url(#clip0_2336_480)">
<path d="M61.5293 0.5H3.5293C1.87244 0.5 0.529297 1.84315 0.529297 3.5V61.5C0.529297 63.1569 1.87244 64.5 3.5293 64.5H61.5293C63.1861 64.5 64.5293 63.1569 64.5293 61.5V3.5C64.5293 1.84315 63.1861 0.5 61.5293 0.5Z" fill="#3178C6"/>
<path fill-rule="evenodd" clip-rule="evenodd" d="M37.6604 50.234V57.247C38.7966 57.831 40.1403 58.2695 41.6916 58.5615C43.243 58.854 44.878 59 46.5969 59C48.272 59 49.8634 58.8395 51.3708 58.518C52.8788 58.1965 54.2003 57.667 55.3368 56.929C56.4728 56.191 57.3723 55.227 58.0353 54.036C58.6978 52.8455 59.0293 51.3735 59.0293 49.6203C59.0293 48.3493 58.8398 47.2353 58.4613 46.2783C58.0823 45.3214 57.5363 44.4704 56.8223 43.7252C56.1088 42.9801 55.2528 42.3117 54.2553 41.72C53.2573 41.1283 52.1323 40.5694 50.8793 40.0435C49.9617 39.6636 49.1387 39.2947 48.4104 38.9368C47.682 38.5788 47.063 38.2136 46.5532 37.841C46.0433 37.4684 45.65 37.074 45.3733 36.6576C45.0965 36.2413 44.9581 35.77 44.9581 35.2441C44.9581 34.7619 45.0819 34.3273 45.3296 33.9402C45.5772 33.553 45.9268 33.2206 46.3784 32.943C46.8299 32.6655 47.3834 32.45 48.0389 32.2966C48.6944 32.1431 49.4227 32.0664 50.2239 32.0664C50.8068 32.0664 51.4218 32.1103 52.0703 32.1979C52.7183 32.2856 53.3703 32.4207 54.0258 32.6034C54.6813 32.786 55.3183 33.0161 55.9378 33.2937C56.5568 33.5713 57.1283 33.8927 57.6528 34.2579V27.7054C56.5893 27.2963 55.4278 26.9931 54.1678 26.7959C52.9078 26.5986 51.4623 26.5 49.8306 26.5C48.17 26.5 46.5969 26.6789 45.1111 27.0369C43.6253 27.3948 42.318 27.9537 41.1891 28.7134C40.0602 29.4731 39.168 30.441 38.5125 31.6171C37.857 32.7932 37.5293 34.1995 37.5293 35.8358C37.5293 37.9251 38.1301 39.7074 39.3319 41.183C40.5336 42.6587 42.358 43.9079 44.8052 44.9305C45.7666 45.325 46.6624 45.7122 47.4927 46.092C48.323 46.4719 49.0404 46.8664 49.6449 47.2755C50.2494 47.6846 50.7263 48.1302 51.0758 48.6123C51.4258 49.0944 51.6003 49.6423 51.6003 50.2559C51.6003 50.709 51.4913 51.129 51.2728 51.516C51.0543 51.903 50.7228 52.239 50.2785 52.524C49.8342 52.809 49.2807 53.032 48.6179 53.1925C47.9552 53.353 47.1795 53.4335 46.291 53.4335C44.776 53.4335 43.2757 53.167 41.7899 52.6335C40.3042 52.1005 38.9277 51.3005 37.6604 50.234ZM25.8806 32.7772H35.0293V27H9.5293V32.7772H18.6332V58.5H25.8806V32.7772Z" fill="white"/>
</g>
<defs>
<clipPath id="clip0_2336_480">
<rect width="64" height="64" fill="white" transform="translate(0.529297 0.5)"/>
</clipPath>
</defs>
</svg>
